<?xml version="1.0" standalone="no"?>
<!DOCTYPE svg PUBLIC "-//W3C//DTD SVG 20010904//EN"
 "http://www.w3.org/TR/2001/REC-SVG-20010904/DTD/svg10.dtd">
<svg version="1.0" xmlns="http://www.w3.org/2000/svg"
 width="338.000000pt" height="338.000000pt" viewBox="0 0 338.000000 338.000000"
 preserveAspectRatio="xMidYMid meet">

<g transform="translate(0.000000,338.000000) scale(0.100000,-0.100000)" stroke="none">
<path fill="#00af63" d="M1945 2919 c-127 -73 -257 -180 -430 -353 -175 -176 -201 -205 -276
-306 -96 -131 -159 -247 -204 -380 l-24 -70 161 -2 c137 -3 162 -5 171 -20 8
-12 7 -21 -2 -32 -11 -13 -40 -16 -176 -16 -160 0 -163 0 -169 -22 -3 -13 -6
-35 -6 -50 l0 -28 171 -2 c148 -3 173 -5 182 -20 8 -12 7 -21 -2 -32 -11 -13
-40 -16 -182 -16 l-169 0 0 -27 c0 -16 3 -38 6 -51 6 -22 9 -22 169 -22 136 0
165 -3 176 -16 9 -11 10 -20 2 -32 -9 -15 -34 -17 -171 -20 l-160 -2 13 -51
c37 -138 157 -324 272 -420 53 -44 132 -85 177 -93 72 -13 306 66 411 137 58
40 175 161 218 226 40 59 107 182 107 196 0 2 -97 6 -216 7 -190 3 -218 5
-227 20 -8 12 -7 21 2 32 12 14 46 16 241 16 l228 0 16 47 c9 26 16 48 16 50
0 1 -111 4 -246 5 -218 3 -248 5 -257 20 -8 12 -7 21 2 32 12 14 48 16 267 16
l254 0 0 50 0 50 -256 2 c-227 3 -258 5 -267 20 -8 12 -7 21 2 32 12 14 48 16
265 16 l252 0 -17 83 c-28 138 -67 246 -164 463 -13 28 -36 91 -51 140 -36
113 -40 270 -10 376 18 63 17 98 -2 98 -4 0 -48 -23 -97 -51z m-305 -788 c0
-17 -7 -111 -15 -211 -25 -296 -24 -496 5 -690 22 -146 29 -210 25 -223 -9
-22 -46 -38 -74 -32 -34 7 -44 27 -67 136 -25 118 -25 448 -1 609 39 253 89
440 118 440 5 0 9 -13 9 -29z"/>
<path fill="#282728" d="M1627 800 c-38 -10 -71 -21 -74 -24 -8 -8 55 -198 79 -236 25 -41 85
-38 141 8 23 20 22 33 -12 107 -17 35 -35 83 -42 107 -7 24 -15 46 -18 49 -3
3 -37 -2 -74 -11z"/>
</g>
</svg>
